<svg width="128" height="128" viewBox="0 0 128 128" fill="none" xmlns="http://www.w3.org/2000/svg">
  <defs>
    <linearGradient id="bg-gradient" x1="0" y1="0" x2="128" y2="128" gradientUnits="userSpaceOnUse">
      <stop offset="0%" stop-color="#3B82F6"/>
      <stop offset="100%" stop-color="#2563EB"/>
    </linearGradient>
  </defs>
  <!-- Background circle -->
  <rect width="128" height="128" rx="28" fill="url(#bg-gradient)"/>
  <!-- Lock icon -->
  <path d="M64 28C53.52 28 45 36.52 45 47V58H41C37.14 58 34 61.14 34 65V97C34 100.86 37.14 104 41 104H87C90.86 104 94 100.86 94 97V65C94 61.14 90.86 58 87 58H83V47C83 36.52 74.48 28 64 28ZM64 36C70.08 36 75 40.92 75 47V58H53V47C53 40.92 57.92 36 64 36ZM64 72C68.42 72 72 75.58 72 80C72 84.42 68.42 88 64 88C59.58 88 56 84.42 56 80C56 75.58 59.58 72 64 72Z" fill="white"/>
</svg>
